<svg width="34" height="45" viewBox="0 0 34 45" fill="none" xmlns="http://www.w3.org/2000/svg">
<g filter="url(#filter0_d_137_379)">
<path d="M17.499 34.4142C21.0058 34.532 23.3926 35.5111 23.3926 36.7013L23.3848 36.8195C23.2218 38.034 20.5553 39 16.7832 39.0001L16.0674 38.9884C12.5602 38.8707 10.1729 37.8915 10.1729 36.7013C10.1729 35.4317 12.8892 34.4025 16.7832 34.4025L17.499 34.4142ZM16.7842 35.1691C13.8637 35.1691 11.4961 35.6837 11.4961 36.3185C11.497 36.9134 13.5774 37.4032 16.2432 37.462L16.7832 37.4669C19.6114 37.4669 21.9222 36.985 22.0654 36.3781L22.0723 36.3185C22.0723 35.7234 19.9914 35.2338 17.3252 35.1749L16.7842 35.1691Z" fill="url(#paint0_linear_137_379)"/>
</g>
<g filter="url(#filter1_d_137_379)">
<mask id="path-2-inside-1_137_379" fill="white">
<path d="M16.5596 0C23.4961 0 29.1199 5.48884 29.1201 12.2598C29.1201 16.0843 27.326 19.5006 24.5146 21.749L16.5596 36.7803L8.60547 21.749C5.79412 19.5006 4 16.0843 4 12.2598C4.00027 5.4889 9.62313 9.43142e-05 16.5596 0ZM16.5586 3.26953C11.4718 3.26956 7.34871 7.29443 7.34863 12.2598C7.34863 17.2252 11.4718 21.251 16.5586 21.251C21.6454 21.251 25.7695 17.2252 25.7695 12.2598C25.7695 7.29441 21.6454 3.26953 16.5586 3.26953Z"/>
</mask>
<path d="M16.5596 0C23.4961 0 29.1199 5.48884 29.1201 12.2598C29.1201 16.0843 27.326 19.5006 24.5146 21.749L16.5596 36.7803L8.60547 21.749C5.79412 19.5006 4 16.0843 4 12.2598C4.00027 5.4889 9.62313 9.43142e-05 16.5596 0ZM16.5586 3.26953C11.4718 3.26956 7.34871 7.29443 7.34863 12.2598C7.34863 17.2252 11.4718 21.251 16.5586 21.251C21.6454 21.251 25.7695 17.2252 25.7695 12.2598C25.7695 7.29441 21.6454 3.26953 16.5586 3.26953Z" fill="url(#paint1_linear_137_379)"/>
<path d="M16.5596 0V-0.5H16.5596L16.5596 0ZM29.1201 12.2598H29.6201V12.2597L29.1201 12.2598ZM24.5146 21.749L24.2024 21.3585L24.1213 21.4234L24.0727 21.5151L24.5146 21.749ZM16.5596 36.7803L16.1176 37.0141L16.5595 37.8492L17.0015 37.0142L16.5596 36.7803ZM8.60547 21.749L9.04741 21.5152L8.99884 21.4234L8.91776 21.3585L8.60547 21.749ZM4 12.2598L3.5 12.2597V12.2598H4ZM16.5586 3.26953V2.76953H16.5586L16.5586 3.26953ZM7.34863 12.2598L6.84863 12.2598V12.2598H7.34863ZM16.5586 21.251L16.5586 21.751H16.5586V21.251ZM25.7695 12.2598H26.2695V12.2598L25.7695 12.2598ZM16.5596 0V0.5C23.2314 0.5 28.6199 5.77634 28.6201 12.2598L29.1201 12.2598L29.6201 12.2597C29.6198 5.20134 23.7607 -0.5 16.5596 -0.5V0ZM29.1201 12.2598H28.6201C28.6201 15.9234 26.9022 19.1993 24.2024 21.3585L24.5146 21.749L24.8269 22.1395C27.7498 19.8019 29.6201 16.2451 29.6201 12.2598H29.1201ZM24.5146 21.749L24.0727 21.5151L16.1176 36.5464L16.5596 36.7803L17.0015 37.0142L24.9566 21.9829L24.5146 21.749ZM16.5596 36.7803L17.0015 36.5464L9.04741 21.5152L8.60547 21.749L8.16353 21.9829L16.1176 37.0141L16.5596 36.7803ZM8.60547 21.749L8.91776 21.3585C6.21789 19.1993 4.5 15.9234 4.5 12.2598H4H3.5C3.5 16.2451 5.37035 19.8019 8.29318 22.1395L8.60547 21.749ZM4 12.2598L4.5 12.2598C4.50025 5.77635 9.88783 0.500091 16.5596 0.5L16.5596 0L16.5596 -0.5C9.35843 -0.499902 3.50028 5.20144 3.5 12.2597L4 12.2598ZM16.5586 3.26953L16.5586 2.76953C11.2071 2.76956 6.84872 7.00698 6.84863 12.2598L7.34863 12.2598L7.84863 12.2598C7.84871 7.58188 11.7365 3.76956 16.5586 3.76953L16.5586 3.26953ZM7.34863 12.2598H6.84863C6.84863 17.5126 11.207 21.7509 16.5586 21.751L16.5586 21.251L16.5586 20.751C11.7366 20.751 7.84863 16.9378 7.84863 12.2598H7.34863ZM16.5586 21.251V21.751C21.9101 21.751 26.2695 17.5126 26.2695 12.2598H25.7695H25.2695C25.2695 16.9377 21.3807 20.751 16.5586 20.751V21.251ZM25.7695 12.2598L26.2695 12.2598C26.2694 7.00689 21.91 2.76953 16.5586 2.76953V3.26953V3.76953C21.3807 3.76953 25.2695 7.58193 25.2695 12.2598L25.7695 12.2598Z" fill="#00B9CE" mask="url(#path-2-inside-1_137_379)"/>
<path d="M16.5596 7.60614C19.2016 7.60614 21.3328 9.69512 21.333 12.2595C21.333 14.824 19.2017 16.9138 16.5596 16.9138C13.9175 16.9136 11.7861 14.8239 11.7861 12.2595C11.7864 9.69519 13.9177 7.60625 16.5596 7.60614Z" fill="#00E5FF" stroke="#00B9CE" stroke-width="0.5"/>
</g>
<ellipse cx="0.93233" cy="2.03897" rx="0.93233" ry="2.03897" transform="matrix(0.711402 -0.702786 0.717137 0.696932 23.834 4.12408)" fill="white"/>
<defs>
<filter id="filter0_d_137_379" x="7.17285" y="31.4025" width="21.2197" height="12.5977" filterUnits="userSpaceOnUse" color-interpolation-filters="sRGB">
<feFlood flood-opacity="0" result="BackgroundImageFix"/>
<feColorMatrix in="SourceAlpha" type="matrix" values="0 0 0 0 0 0 0 0 0 0 0 0 0 0 0 0 0 0 127 0" result="hardAlpha"/>
<feOffset dx="1" dy="1"/>
<feGaussianBlur stdDeviation="2"/>
<feComposite in2="hardAlpha" operator="out"/>
<feColorMatrix type="matrix" values="0 0 0 0 0.9 0 0 0 0 1 0 0 0 0 0 0 0 0 0.25 0"/>
<feBlend mode="normal" in2="BackgroundImageFix" result="effect1_dropShadow_137_379"/>
<feBlend mode="normal" in="SourceGraphic" in2="effect1_dropShadow_137_379" result="shape"/>
</filter>
<filter id="filter1_d_137_379" x="0" y="0" width="33.1201" height="44.7803" filterUnits="userSpaceOnUse" color-interpolation-filters="sRGB">
<feFlood flood-opacity="0" result="BackgroundImageFix"/>
<feColorMatrix in="SourceAlpha" type="matrix" values="0 0 0 0 0 0 0 0 0 0 0 0 0 0 0 0 0 0 127 0" result="hardAlpha"/>
<feOffset dy="4"/>
<feGaussianBlur stdDeviation="2"/>
<feComposite in2="hardAlpha" operator="out"/>
<feColorMatrix type="matrix" values="0 0 0 0 0 0 0 0 0 0.898039 0 0 0 0 1 0 0 0 0.25 0"/>
<feBlend mode="normal" in2="BackgroundImageFix" result="effect1_dropShadow_137_379"/>
<feBlend mode="normal" in="SourceGraphic" in2="effect1_dropShadow_137_379" result="shape"/>
</filter>
<linearGradient id="paint0_linear_137_379" x1="16.7827" y1="34.4025" x2="13.9044" y2="44.6037" gradientUnits="userSpaceOnUse">
<stop stop-color="#00E5FF"/>
<stop offset="1" stop-color="#016D7A"/>
</linearGradient>
<linearGradient id="paint1_linear_137_379" x1="25.4936" y1="-0.988503" x2="2.11617" y2="51.26" gradientUnits="userSpaceOnUse">
<stop stop-color="#00E6FF"/>
<stop offset="0.235541" stop-color="#00E5FF"/>
<stop offset="1" stop-color="#016D7A"/>
</linearGradient>
</defs>
</svg>
