<svg width="34" height="45" viewBox="0 0 34 45" fill="none" xmlns="http://www.w3.org/2000/svg">
<g filter="url(#filter0_d_113_71)">
<path d="M17.4988 34.4142C21.0055 34.532 23.3923 35.5111 23.3923 36.7013L23.3845 36.8195C23.2216 38.034 20.5551 39 16.783 39.0001L16.0671 38.9884C12.56 38.8707 10.1727 37.8915 10.1726 36.7013C10.1726 35.4317 12.8889 34.4025 16.783 34.4025L17.4988 34.4142ZM16.7839 35.1691C13.8634 35.1691 11.4958 35.6837 11.4958 36.3185C11.4968 36.9134 13.5771 37.4032 16.2429 37.462L16.783 37.4669C19.6111 37.4669 21.922 36.985 22.0652 36.3781L22.072 36.3185C22.072 35.7234 19.9912 35.2338 17.325 35.1749L16.7839 35.1691Z" fill="url(#paint0_linear_113_71)"/>
</g>
<g filter="url(#filter1_d_113_71)">
<mask id="path-2-inside-1_113_71" fill="white">
<path d="M16.5596 0C23.4961 0 29.1199 5.48884 29.1201 12.2598C29.1201 16.0843 27.326 19.5006 24.5146 21.749L16.5596 36.7803L8.60547 21.749C5.79412 19.5006 4 16.0843 4 12.2598C4.00027 5.4889 9.62313 9.43142e-05 16.5596 0ZM16.5586 3.26953C11.4718 3.26956 7.34871 7.29443 7.34863 12.2598C7.34863 17.2252 11.4718 21.251 16.5586 21.251C21.6454 21.251 25.7695 17.2252 25.7695 12.2598C25.7695 7.29441 21.6454 3.26953 16.5586 3.26953Z"/>
</mask>
<path d="M16.5596 0C23.4961 0 29.1199 5.48884 29.1201 12.2598C29.1201 16.0843 27.326 19.5006 24.5146 21.749L16.5596 36.7803L8.60547 21.749C5.79412 19.5006 4 16.0843 4 12.2598C4.00027 5.4889 9.62313 9.43142e-05 16.5596 0ZM16.5586 3.26953C11.4718 3.26956 7.34871 7.29443 7.34863 12.2598C7.34863 17.2252 11.4718 21.251 16.5586 21.251C21.6454 21.251 25.7695 17.2252 25.7695 12.2598C25.7695 7.29441 21.6454 3.26953 16.5586 3.26953Z" fill="url(#paint1_linear_113_71)"/>
<path d="M16.5596 0V-0.5H16.5596L16.5596 0ZM29.1201 12.2598H29.6201V12.2597L29.1201 12.2598ZM24.5146 21.749L24.2024 21.3585L24.1213 21.4234L24.0727 21.5151L24.5146 21.749ZM16.5596 36.7803L16.1176 37.0141L16.5595 37.8492L17.0015 37.0142L16.5596 36.7803ZM8.60547 21.749L9.04741 21.5152L8.99884 21.4234L8.91776 21.3585L8.60547 21.749ZM4 12.2598L3.5 12.2597V12.2598H4ZM16.5586 3.26953V2.76953H16.5586L16.5586 3.26953ZM7.34863 12.2598L6.84863 12.2598V12.2598H7.34863ZM16.5586 21.251L16.5586 21.751H16.5586V21.251ZM25.7695 12.2598H26.2695V12.2598L25.7695 12.2598ZM16.5596 0V0.5C23.2314 0.5 28.6199 5.77634 28.6201 12.2598L29.1201 12.2598L29.6201 12.2597C29.6198 5.20134 23.7607 -0.5 16.5596 -0.5V0ZM29.1201 12.2598H28.6201C28.6201 15.9234 26.9022 19.1993 24.2024 21.3585L24.5146 21.749L24.8269 22.1395C27.7498 19.8019 29.6201 16.2451 29.6201 12.2598H29.1201ZM24.5146 21.749L24.0727 21.5151L16.1176 36.5464L16.5596 36.7803L17.0015 37.0142L24.9566 21.9829L24.5146 21.749ZM16.5596 36.7803L17.0015 36.5464L9.04741 21.5152L8.60547 21.749L8.16353 21.9829L16.1176 37.0141L16.5596 36.7803ZM8.60547 21.749L8.91776 21.3585C6.21789 19.1993 4.5 15.9234 4.5 12.2598H4H3.5C3.5 16.2451 5.37035 19.8019 8.29318 22.1395L8.60547 21.749ZM4 12.2598L4.5 12.2598C4.50025 5.77635 9.88783 0.500091 16.5596 0.5L16.5596 0L16.5596 -0.5C9.35843 -0.499902 3.50028 5.20144 3.5 12.2597L4 12.2598ZM16.5586 3.26953L16.5586 2.76953C11.2071 2.76956 6.84872 7.00698 6.84863 12.2598L7.34863 12.2598L7.84863 12.2598C7.84871 7.58188 11.7365 3.76956 16.5586 3.76953L16.5586 3.26953ZM7.34863 12.2598H6.84863C6.84863 17.5126 11.207 21.7509 16.5586 21.751L16.5586 21.251L16.5586 20.751C11.7366 20.751 7.84863 16.9378 7.84863 12.2598H7.34863ZM16.5586 21.251V21.751C21.9101 21.751 26.2695 17.5126 26.2695 12.2598H25.7695H25.2695C25.2695 16.9377 21.3807 20.751 16.5586 20.751V21.251ZM25.7695 12.2598L26.2695 12.2598C26.2694 7.00689 21.91 2.76953 16.5586 2.76953V3.26953V3.76953C21.3807 3.76953 25.2695 7.58193 25.2695 12.2598L25.7695 12.2598Z" fill="#E5DE0E" mask="url(#path-2-inside-1_113_71)"/>
<path d="M16.5593 7.60617C19.2013 7.60617 21.3325 9.69515 21.3328 12.2595C21.3328 14.824 19.2015 16.9138 16.5593 16.9138C13.9173 16.9137 11.7859 14.824 11.7859 12.2595C11.7861 9.69522 13.9174 7.60628 16.5593 7.60617Z" fill="#FBFF01" stroke="#E5DE0E" stroke-width="0.5"/>
</g>
<ellipse cx="0.93233" cy="2.03897" rx="0.93233" ry="2.03897" transform="matrix(0.711402 -0.702786 0.717137 0.696932 23.834 4.12408)" fill="white"/>
<defs>
<filter id="filter0_d_113_71" x="7.17261" y="31.4025" width="21.2197" height="12.5977" filterUnits="userSpaceOnUse" color-interpolation-filters="sRGB">
<feFlood flood-opacity="0" result="BackgroundImageFix"/>
<feColorMatrix in="SourceAlpha" type="matrix" values="0 0 0 0 0 0 0 0 0 0 0 0 0 0 0 0 0 0 127 0" result="hardAlpha"/>
<feOffset dx="1" dy="1"/>
<feGaussianBlur stdDeviation="2"/>
<feComposite in2="hardAlpha" operator="out"/>
<feColorMatrix type="matrix" values="0 0 0 0 0.9 0 0 0 0 1 0 0 0 0 0 0 0 0 0.25 0"/>
<feBlend mode="normal" in2="BackgroundImageFix" result="effect1_dropShadow_113_71"/>
<feBlend mode="normal" in="SourceGraphic" in2="effect1_dropShadow_113_71" result="shape"/>
</filter>
<filter id="filter1_d_113_71" x="0" y="0" width="33.1201" height="44.7803" filterUnits="userSpaceOnUse" color-interpolation-filters="sRGB">
<feFlood flood-opacity="0" result="BackgroundImageFix"/>
<feColorMatrix in="SourceAlpha" type="matrix" values="0 0 0 0 0 0 0 0 0 0 0 0 0 0 0 0 0 0 127 0" result="hardAlpha"/>
<feOffset dy="4"/>
<feGaussianBlur stdDeviation="2"/>
<feComposite in2="hardAlpha" operator="out"/>
<feColorMatrix type="matrix" values="0 0 0 0 0.984314 0 0 0 0 1 0 0 0 0 0.00392157 0 0 0 0.25 0"/>
<feBlend mode="normal" in2="BackgroundImageFix" result="effect1_dropShadow_113_71"/>
<feBlend mode="normal" in="SourceGraphic" in2="effect1_dropShadow_113_71" result="shape"/>
</filter>
<linearGradient id="paint0_linear_113_71" x1="16.7825" y1="34.4025" x2="13.9041" y2="44.6037" gradientUnits="userSpaceOnUse">
<stop stop-color="#FBFF00"/>
<stop offset="1" stop-color="#979900"/>
</linearGradient>
<linearGradient id="paint1_linear_113_71" x1="25.4936" y1="-0.988503" x2="2.11617" y2="51.26" gradientUnits="userSpaceOnUse">
<stop stop-color="#FBFF00"/>
<stop offset="0.235541" stop-color="#FBFF00"/>
<stop offset="1" stop-color="#9D9F00"/>
</linearGradient>
</defs>
</svg>
