<svg width="26" height="39" viewBox="0 0 26 39" fill="none" xmlns="http://www.w3.org/2000/svg">
<path d="M12.5586 34.3994C16.4519 34.3995 19.1684 35.4291 19.1689 36.6992L19.1611 36.8184C18.9977 38.0335 16.3303 39 12.5586 39L11.8428 38.9883C8.33613 38.8705 5.94922 37.8902 5.94922 36.6992C5.94977 35.4291 8.66536 34.3995 12.5586 34.3994ZM12.5605 35.166C9.64043 35.166 7.27282 35.6813 7.27246 36.3164C7.27315 36.9117 9.35362 37.4011 12.0195 37.46L12.5605 37.4658C15.3898 37.4658 17.6997 36.9828 17.8408 36.375L17.8477 36.3164C17.8473 35.721 15.7669 35.2307 13.1006 35.1719L12.5605 35.166Z" fill="url(#paint0_linear_113_20)"/>
<mask id="path-2-inside-1_113_20" fill="white">
<path d="M12.5587 0C19.495 0 25.1183 5.49298 25.1183 12.2686C25.1182 16.0953 23.3247 19.5129 20.5138 21.7627L12.5587 36.8047L4.60461 21.7627C1.79367 19.5129 0.000213857 16.0953 0.00012207 12.2686C0.00012207 5.49312 5.62263 0.000227799 12.5587 0ZM12.5587 3.27148C7.4723 3.27148 3.34892 7.29905 3.34875 12.2676C3.34875 17.2362 7.47219 21.2646 12.5587 21.2646C17.6451 21.2644 21.7687 17.2361 21.7687 12.2676C21.7685 7.29917 17.645 3.27168 12.5587 3.27148Z"/>
</mask>
<path d="M12.5587 0C19.495 0 25.1183 5.49298 25.1183 12.2686C25.1182 16.0953 23.3247 19.5129 20.5138 21.7627L12.5587 36.8047L4.60461 21.7627C1.79367 19.5129 0.000213857 16.0953 0.00012207 12.2686C0.00012207 5.49312 5.62263 0.000227799 12.5587 0ZM12.5587 3.27148C7.4723 3.27148 3.34892 7.29905 3.34875 12.2676C3.34875 17.2362 7.47219 21.2646 12.5587 21.2646C17.6451 21.2644 21.7687 17.2361 21.7687 12.2676C21.7685 7.29917 17.645 3.27168 12.5587 3.27148Z" fill="url(#paint1_linear_113_20)"/>
<path d="M12.5587 0V-0.5H12.5587L12.5587 0ZM25.1183 12.2686L25.6183 12.2686V12.2686H25.1183ZM20.5138 21.7627L20.2014 21.3723L20.1203 21.4372L20.0718 21.5289L20.5138 21.7627ZM12.5587 36.8047L12.1167 37.0384L12.5587 37.8742L13.0007 37.0384L12.5587 36.8047ZM4.60461 21.7627L5.04662 21.529L4.9981 21.4372L4.91705 21.3723L4.60461 21.7627ZM0.00012207 12.2686H-0.499878V12.2686L0.00012207 12.2686ZM12.5587 3.27148L12.5587 2.77148H12.5587V3.27148ZM3.34875 12.2676L2.84875 12.2676V12.2676H3.34875ZM12.5587 21.2646V21.7646H12.5587L12.5587 21.2646ZM21.7687 12.2676H22.2687V12.2676L21.7687 12.2676ZM12.5587 0V0.5C19.23 0.5 24.6183 5.78011 24.6183 12.2686H25.1183H25.6183C25.6183 5.20585 19.76 -0.5 12.5587 -0.5V0ZM25.1183 12.2686L24.6183 12.2685C24.6182 15.9346 22.9008 19.2117 20.2014 21.3723L20.5138 21.7627L20.8262 22.1531C23.7486 19.814 25.6182 16.256 25.6183 12.2686L25.1183 12.2686ZM20.5138 21.7627L20.0718 21.5289L12.1167 36.5709L12.5587 36.8047L13.0007 37.0384L20.9558 21.9964L20.5138 21.7627ZM12.5587 36.8047L13.0007 36.571L5.04662 21.529L4.60461 21.7627L4.16261 21.9964L12.1167 37.0384L12.5587 36.8047ZM4.60461 21.7627L4.91705 21.3723C2.21757 19.2117 0.50021 15.9346 0.500122 12.2685L0.00012207 12.2686L-0.499878 12.2686C-0.499782 16.256 1.36978 19.814 4.29218 22.1531L4.60461 21.7627ZM0.00012207 12.2686H0.500122C0.500122 5.78022 5.88769 0.500219 12.5587 0.5L12.5587 0L12.5587 -0.5C5.35756 -0.499763 -0.499878 5.20603 -0.499878 12.2686H0.00012207ZM12.5587 3.27148V2.77148C7.20729 2.77148 2.84893 7.0119 2.84875 12.2676L3.34875 12.2676L3.84875 12.2676C3.84891 7.5862 7.73731 3.77148 12.5587 3.77148V3.27148ZM3.34875 12.2676H2.84875C2.84875 17.5233 7.20713 21.7646 12.5587 21.7646V21.2646V20.7646C7.73726 20.7646 3.84875 16.9492 3.84875 12.2676H3.34875ZM12.5587 21.2646L12.5587 21.7646C17.9101 21.7644 22.2687 17.5232 22.2687 12.2676H21.7687H21.2687C21.2687 16.949 17.38 20.7645 12.5587 20.7646L12.5587 21.2646ZM21.7687 12.2676L22.2687 12.2676C22.2685 7.012 17.91 2.7717 12.5587 2.77148L12.5587 3.27148L12.5587 3.77148C17.38 3.77167 21.2685 7.58634 21.2687 12.2676L21.7687 12.2676Z" fill="#A0A0A0" mask="url(#path-2-inside-1_113_20)"/>
<path d="M12.559 7.6109C15.2007 7.61094 17.3324 9.70167 17.3324 12.2681C17.3323 14.8345 15.2007 16.9243 12.559 16.9244C9.91723 16.9244 7.78566 14.8345 7.78552 12.2681C7.78552 9.70165 9.91715 7.6109 12.559 7.6109Z" fill="#858585" stroke="#A0A0A0" stroke-width="0.5"/>
<ellipse cx="0.932597" cy="2.03954" rx="0.932597" ry="2.03954" transform="matrix(0.711157 -0.703034 0.716894 0.697182 19.6105 4.10165)" fill="white"/>
<defs>
<linearGradient id="paint0_linear_113_20" x1="12.5591" y1="34.3994" x2="9.67719" y2="44.6064" gradientUnits="userSpaceOnUse">
<stop stop-color="#858585"/>
<stop offset="1" stop-color="#171717"/>
</linearGradient>
<linearGradient id="paint1_linear_113_20" x1="21.492" y1="-0.989159" x2="-1.91246" y2="51.281" gradientUnits="userSpaceOnUse">
<stop stop-color="#858585"/>
<stop offset="0.235541" stop-color="#858585"/>
<stop offset="1" stop-color="#171717"/>
</linearGradient>
</defs>
</svg>
