<svg width="26" height="39" viewBox="0 0 26 39" fill="none" xmlns="http://www.w3.org/2000/svg">
<path d="M12.5586 34.3994C16.4519 34.3995 19.1684 35.4291 19.1689 36.6992L19.1611 36.8184C18.9977 38.0335 16.3303 39 12.5586 39L11.8428 38.9883C8.33613 38.8705 5.94922 37.8902 5.94922 36.6992C5.94977 35.4291 8.66536 34.3995 12.5586 34.3994ZM12.5605 35.166C9.64043 35.166 7.27282 35.6813 7.27246 36.3164C7.27315 36.9117 9.35362 37.4011 12.0195 37.46L12.5605 37.4658C15.3898 37.4658 17.6997 36.9828 17.8408 36.375L17.8477 36.3164C17.8473 35.721 15.7669 35.2307 13.1006 35.1719L12.5605 35.166Z" fill="url(#paint0_linear_137_390)"/>
<mask id="path-2-inside-1_137_390" fill="white">
<path d="M12.5586 0C19.4949 0 25.1182 5.49298 25.1182 12.2686C25.1181 16.0953 23.3246 19.5129 20.5137 21.7627L12.5586 36.8047L4.60449 21.7627C1.79355 19.5129 9.17865e-05 16.0953 0 12.2686C0 5.49312 5.6225 0.000227799 12.5586 0ZM12.5586 3.27148C7.47217 3.27148 3.3488 7.29905 3.34863 12.2676C3.34863 17.2362 7.47207 21.2646 12.5586 21.2646C17.6449 21.2644 21.7686 17.2361 21.7686 12.2676C21.7684 7.29917 17.6448 3.27168 12.5586 3.27148Z"/>
</mask>
<path d="M12.5586 0C19.4949 0 25.1182 5.49298 25.1182 12.2686C25.1181 16.0953 23.3246 19.5129 20.5137 21.7627L12.5586 36.8047L4.60449 21.7627C1.79355 19.5129 9.17865e-05 16.0953 0 12.2686C0 5.49312 5.6225 0.000227799 12.5586 0ZM12.5586 3.27148C7.47217 3.27148 3.3488 7.29905 3.34863 12.2676C3.34863 17.2362 7.47207 21.2646 12.5586 21.2646C17.6449 21.2644 21.7686 17.2361 21.7686 12.2676C21.7684 7.29917 17.6448 3.27168 12.5586 3.27148Z" fill="url(#paint1_linear_137_390)"/>
<path d="M12.5586 0V-0.5H12.5586L12.5586 0ZM25.1182 12.2686L25.6182 12.2686V12.2686H25.1182ZM20.5137 21.7627L20.2012 21.3723L20.1202 21.4372L20.0717 21.5289L20.5137 21.7627ZM12.5586 36.8047L12.1166 37.0384L12.5586 37.8742L13.0006 37.0384L12.5586 36.8047ZM4.60449 21.7627L5.0465 21.529L4.99797 21.4372L4.91693 21.3723L4.60449 21.7627ZM0 12.2686H-0.5V12.2686L0 12.2686ZM12.5586 3.27148L12.5586 2.77148H12.5586V3.27148ZM3.34863 12.2676L2.84863 12.2676V12.2676H3.34863ZM12.5586 21.2646V21.7646H12.5586L12.5586 21.2646ZM21.7686 12.2676H22.2686V12.2676L21.7686 12.2676ZM12.5586 0V0.5C19.2299 0.5 24.6182 5.78011 24.6182 12.2686H25.1182H25.6182C25.6182 5.20585 19.7599 -0.5 12.5586 -0.5V0ZM25.1182 12.2686L24.6182 12.2685C24.6181 15.9346 22.9007 19.2117 20.2012 21.3723L20.5137 21.7627L20.8261 22.1531C23.7485 19.814 25.6181 16.256 25.6182 12.2686L25.1182 12.2686ZM20.5137 21.7627L20.0717 21.5289L12.1166 36.5709L12.5586 36.8047L13.0006 37.0384L20.9557 21.9964L20.5137 21.7627ZM12.5586 36.8047L13.0006 36.571L5.0465 21.529L4.60449 21.7627L4.16249 21.9964L12.1166 37.0384L12.5586 36.8047ZM4.60449 21.7627L4.91693 21.3723C2.21745 19.2117 0.500088 15.9346 0.5 12.2685L0 12.2686L-0.5 12.2686C-0.499904 16.256 1.36966 19.814 4.29205 22.1531L4.60449 21.7627ZM0 12.2686H0.5C0.5 5.78022 5.88757 0.500219 12.5586 0.5L12.5586 0L12.5586 -0.5C5.35744 -0.499763 -0.5 5.20603 -0.5 12.2686H0ZM12.5586 3.27148V2.77148C7.20716 2.77148 2.84881 7.0119 2.84863 12.2676L3.34863 12.2676L3.84863 12.2676C3.84879 7.5862 7.73718 3.77148 12.5586 3.77148V3.27148ZM3.34863 12.2676H2.84863C2.84863 17.5233 7.20701 21.7646 12.5586 21.7646V21.2646V20.7646C7.73714 20.7646 3.84863 16.9492 3.84863 12.2676H3.34863ZM12.5586 21.2646L12.5586 21.7646C17.91 21.7644 22.2686 17.5232 22.2686 12.2676H21.7686H21.2686C21.2686 16.949 17.3799 20.7645 12.5586 20.7646L12.5586 21.2646ZM21.7686 12.2676L22.2686 12.2676C22.2684 7.012 17.9098 2.7717 12.5586 2.77148L12.5586 3.27148L12.5586 3.77148C17.3798 3.77167 21.2684 7.58634 21.2686 12.2676L21.7686 12.2676Z" fill="#A0A0A0" mask="url(#path-2-inside-1_137_390)"/>
<path d="M12.5588 7.6109C15.2006 7.61094 17.3323 9.70167 17.3323 12.2681C17.3321 14.8345 15.2005 16.9243 12.5588 16.9244C9.91711 16.9244 7.78554 14.8345 7.7854 12.2681C7.7854 9.70165 9.91703 7.6109 12.5588 7.6109Z" fill="#858585" stroke="#A0A0A0" stroke-width="0.5"/>
<ellipse cx="0.932597" cy="2.03954" rx="0.932597" ry="2.03954" transform="matrix(0.711157 -0.703034 0.716894 0.697182 19.6106 4.10168)" fill="white"/>
<defs>
<linearGradient id="paint0_linear_137_390" x1="12.5591" y1="34.3994" x2="9.67719" y2="44.6064" gradientUnits="userSpaceOnUse">
<stop stop-color="#858585"/>
<stop offset="1" stop-color="#171717"/>
</linearGradient>
<linearGradient id="paint1_linear_137_390" x1="21.4919" y1="-0.989159" x2="-1.91258" y2="51.281" gradientUnits="userSpaceOnUse">
<stop stop-color="#858585"/>
<stop offset="0.235541" stop-color="#858585"/>
<stop offset="1" stop-color="#171717"/>
</linearGradient>
</defs>
</svg>
